<?xml version="1.0" encoding="UTF-8"?><svg xmlns="http://www.w3.org/2000/svg" xmlns:xlink="http://www.w3.org/1999/xlink" version="1.1" x="0px" y="0px" viewBox="0 0 50 50" xml:space="preserve"><path d="M49 1H1v48h48V1zm-2 2v9H3V3h44zM18 40v-5h14v5H18zm14 2v5H18v-5h14zM18 26v-5h14v5H18zm14 2v5H18v-5h14zm-14-9v-5h14v5H18zm-2 0H3v-5h13v5zm0 2v5H3v-5h13zm0 7v5H3v-5h13zm0 7v5H3v-5h13zm18 0h13v5H34v-5zm0-2v-5h13v5H34zm0-7v-5h13v5H34zm0-7v-5h13v5H34zM3 42h13v5H3v-5zm31 5v-5h13v5H34z" id="Layer_1"/><metadata><rdf:RDF xmlns:rdf="http://www.w3.org/1999/02/22-rdf-syntax-ns#" xmlns:rdfs="http://www.w3.org/2000/01/rdf-schema#" xmlns:dc="http://purl.org/dc/elements/1.1/"><rdf:Description about="https://iconscout.com/legal#licenses" dc:title="spreadsheet-table-document-data-grid" dc:description="spreadsheet-table-document-data-grid" dc:publisher="Iconscout" dc:date="2018-05-24" dc:format="image/svg+xml" dc:language="en"><dc:creator><rdf:Bag><rdf:li>Becris .</rdf:li></rdf:Bag></dc:creator></rdf:Description></rdf:RDF></metadata></svg>