<?xml version="1.0" encoding="UTF-8" standalone="no"?><svg xmlns="http://www.w3.org/2000/svg" xmlns:xlink="http://www.w3.org/1999/xlink" width="48px" height="48px" viewBox="0 0 48 48" version="1.1"><title>Whatsapp-black</title><g id="Icons" stroke="none" stroke-width="1" fill="none" fill-rule="evenodd"><g id="Black" transform="translate(-700.000000, -360.000000)" fill="#000"><path d="M723.993 360C710.763 360 700 370.765 700 384a23.824 23.824 0 0 0 4.57 14.067l-2.99 8.917 9.224-2.948A23.81 23.81 0 0 0 724.007 408c13.23 0 23.993-10.766 23.993-24s-10.762-24-23.993-24h-.014zm-6.7 12.19c-.466-1.114-.818-1.156-1.523-1.185a13.55 13.55 0 0 0-.804-.027c-.918 0-1.877.268-2.455.86-.705.72-2.454 2.398-2.454 5.841s2.51 6.773 2.849 7.239c.353.465 4.895 7.632 11.947 10.553 5.515 2.286 7.152 2.074 8.407 1.806 1.834-.395 4.133-1.75 4.711-3.386.579-1.637.579-3.034.41-3.33-.17-.296-.636-.465-1.34-.818-.706-.353-4.134-2.046-4.783-2.272-.634-.24-1.24-.155-1.72.522-.677.946-1.34 1.905-1.876 2.483-.423.452-1.115.509-1.693.268-.776-.324-2.948-1.086-5.628-3.47-2.074-1.849-3.484-4.148-3.893-4.84-.41-.705-.042-1.114.282-1.495.353-.438.691-.748 1.044-1.157.352-.41.55-.621.776-1.1.24-.466.07-.946-.1-1.3-.168-.352-1.579-3.795-2.157-5.191z" id="Whatsapp"/></g></g><metadata><rdf:RDF xmlns:rdf="http://www.w3.org/1999/02/22-rdf-syntax-ns#" xmlns:rdfs="http://www.w3.org/2000/01/rdf-schema#" xmlns:dc="http://purl.org/dc/elements/1.1/"><rdf:Description about="https://iconscout.com/legal#licenses" dc:title="whatsapp,black" dc:description="whatsapp,black" dc:publisher="Iconscout" dc:date="2017-09-14" dc:format="image/svg+xml" dc:language="en"><dc:creator><rdf:Bag><rdf:li>Alexis Doreau</rdf:li></rdf:Bag></dc:creator></rdf:Description></rdf:RDF></metadata></svg>