<svg xmlns="http://www.w3.org/2000/svg" width="24" height="24" viewBox="0 0 24 24">
    <g fill="none">
        <path fill="#22AC6F" d="M15.484 17.89a.5.5 0 0 1-1 0v-7a.5.5 0 1 1 1 0v7z"/>
        <path fill="#22AC6F" d="M17.032 15.354a.5.5 0 1 1 .75.66L15.36 18.77a.5.5 0 0 1-.75 0l-2.425-2.754a.5.5 0 0 1 .751-.66l2.049 2.327 2.048-2.328z"/>
        <path fill="#2C2F37" d="M10.484 13.11a.5.5 0 0 1-1 0v-7a.5.5 0 1 1 1 0v7z"/>
        <path fill="#2C2F37" d="M12.032 8.646a.5.5 0 0 0 .75-.66L10.36 5.23a.5.5 0 0 0-.75 0L7.183 7.985a.5.5 0 1 0 .751.66l2.049-2.327 2.048 2.328z"/>
    </g>
</svg>
